REM DIRINDEX 1\2,1\3,1\4
REM DIRNAME cjc105,folder01,folder02,folder03
TITLE ""
FILE "DISC3Track12.mp3" MP3
  TRACK 01 AUDIO
    TITLE "0:"
    INDEX 01 00:00:00
  TRACK 02 AUDIO
    TITLE "4:cjc105_4736"
    INDEX 01 00:00:19
  TRACK 03 AUDIO
    TITLE "0:"
    INDEX 01 00:01:66
  TRACK 04 AUDIO
    TITLE "2:cjc105_4737"
    INDEX 01 00:02:40
  TRACK 05 AUDIO
    TITLE "3:cjc105_4738"
    INDEX 01 00:04:07
  TRACK 06 AUDIO
    TITLE "0:"
    INDEX 01 00:05:03
  TRACK 07 AUDIO
    TITLE "2:cjc105_4739"
    INDEX 01 00:05:18
  TRACK 08 AUDIO
    TITLE "3:cjc105_4740"
    INDEX 01 00:06:61
  TRACK 09 AUDIO
    TITLE "0:"
    INDEX 01 00:08:15
  TRACK 10 AUDIO
    TITLE "2:cjc105_4741"
    INDEX 01 00:08:32
  TRACK 11 AUDIO
    TITLE "3:cjc105_4742"
    INDEX 01 00:10:06
  TRACK 12 AUDIO
    TITLE "0:"
    INDEX 01 00:11:27
  TRACK 13 AUDIO
    TITLE "2:cjc105_4743"
    INDEX 01 00:11:44
  TRACK 14 AUDIO
    TITLE "3:cjc105_4744"
    INDEX 01 00:12:65
  TRACK 15 AUDIO
    TITLE "0:"
    INDEX 01 00:14:47
  TRACK 16 AUDIO
    TITLE "2:cjc105_4745"
    INDEX 01 00:14:66
  TRACK 17 AUDIO
    TITLE "3:cjc105_4746"
    INDEX 01 00:16:24
  TRACK 18 AUDIO
    TITLE "0:"
    INDEX 01 00:17:49
  TRACK 19 AUDIO
    TITLE "2:cjc105_4747"
    INDEX 01 00:17:69
  TRACK 20 AUDIO
    TITLE "3:cjc105_4748"
    INDEX 01 00:19:20
  TRACK 21 AUDIO
    TITLE "0:"
    INDEX 01 00:20:26
  TRACK 22 AUDIO
    TITLE "2:cjc105_4749"
    INDEX 01 00:20:47
  TRACK 23 AUDIO
    TITLE "3:cjc105_4750"
    INDEX 01 00:21:64
  TRACK 24 AUDIO
    TITLE "0:"
    INDEX 01 00:22:70
  TRACK 25 AUDIO
    TITLE "2:cjc105_4751"
    INDEX 01 00:23:14
  TRACK 26 AUDIO
    TITLE "3:cjc105_4752"
    INDEX 01 00:24:65
  TRACK 27 AUDIO
    TITLE "0:"
    INDEX 01 00:26:34
  TRACK 28 AUDIO
    TITLE "2:cjc105_4753"
    INDEX 01 00:26:54
  TRACK 29 AUDIO
    TITLE "3:cjc105_4754"
    INDEX 01 00:28:21
  TRACK 30 AUDIO
    TITLE "0:"
    INDEX 01 00:29:46
  TRACK 31 AUDIO
    TITLE "2:cjc105_4755"
    INDEX 01 00:29:64
  TRACK 32 AUDIO
    TITLE "3:cjc105_4756"
    INDEX 01 00:31:00
  TRACK 33 AUDIO
    TITLE "0:"
    INDEX 01 00:32:21
  TRACK 34 AUDIO
    TITLE "2:cjc105_4757"
    INDEX 01 00:32:37
  TRACK 35 AUDIO
    TITLE "3:cjc105_4758"
    INDEX 01 00:33:54
  TRACK 36 AUDIO
    TITLE "0:"
    INDEX 01 00:34:69
  TRACK 37 AUDIO
    TITLE "2:cjc105_4759"
    INDEX 01 00:35:12
  TRACK 38 AUDIO
    TITLE "3:cjc105_4760"
    INDEX 01 00:36:19
  TRACK 39 AUDIO
    TITLE "0:"
    INDEX 01 00:37:40
  TRACK 40 AUDIO
    TITLE "2:cjc105_4761"
    INDEX 01 00:37:57
  TRACK 41 AUDIO
    TITLE "3:cjc105_4762"
    INDEX 01 00:39:21
  TRACK 42 AUDIO
    TITLE "0:"
    INDEX 01 00:40:40
  TRACK 43 AUDIO
    TITLE "2:cjc105_4763"
    INDEX 01 00:40:60
  TRACK 44 AUDIO
    TITLE "3:cjc105_4764"
    INDEX 01 00:42:25
  TRACK 45 AUDIO
    TITLE "0:"
    INDEX 01 00:43:66
  TRACK 46 AUDIO
    TITLE "2:cjc105_4765"
    INDEX 01 00:44:14
  TRACK 47 AUDIO
    TITLE "3:cjc105_4766"
    INDEX 01 00:45:33
  TRACK 48 AUDIO
    TITLE "0:"
    INDEX 01 00:46:35
  TRACK 49 AUDIO
    TITLE "2:cjc105_4767"
    INDEX 01 00:46:51
  TRACK 50 AUDIO
    TITLE "3:cjc105_4768"
    INDEX 01 00:47:64
  TRACK 51 AUDIO
    TITLE "0:"
    INDEX 01 00:49:10
  TRACK 52 AUDIO
    TITLE "2:cjc105_4769"
    INDEX 01 00:49:25
  TRACK 53 AUDIO
    TITLE "3:cjc105_4770"
    INDEX 01 00:50:52
  TRACK 54 AUDIO
    TITLE "0:"
    INDEX 01 00:51:73
  TRACK 55 AUDIO
    TITLE "2:cjc105_4771"
    INDEX 01 00:52:14
  TRACK 56 AUDIO
    TITLE "3:cjc105_4772"
    INDEX 01 00:53:41
  TRACK 57 AUDIO
    TITLE "0:"
    INDEX 01 00:54:64
  TRACK 58 AUDIO
    TITLE "2:cjc105_4773"
    INDEX 01 00:55:08
  TRACK 59 AUDIO
    TITLE "3:cjc105_4774"
    INDEX 01 00:56:31
  TRACK 60 AUDIO
    TITLE "0:"
    INDEX 01 00:57:56
  TRACK 61 AUDIO
    TITLE "2:cjc105_4775"
    INDEX 01 00:57:74
  TRACK 62 AUDIO
    TITLE "3:cjc105_4776"
    INDEX 01 00:59:08
  TRACK 63 AUDIO
    TITLE "0:"
    INDEX 01 01:00:08
  TRACK 64 AUDIO
    TITLE "2:cjc105_4777"
    INDEX 01 01:00:23
  TRACK 65 AUDIO
    TITLE "3:cjc105_4778"
    INDEX 01 01:01:54
  TRACK 66 AUDIO
    TITLE "0:"
    INDEX 01 01:02:65
  TRACK 67 AUDIO
    TITLE "2:cjc105_4779"
    INDEX 01 01:03:10
  TRACK 68 AUDIO
    TITLE "3:cjc105_4780"
    INDEX 01 01:04:13
  TRACK 69 AUDIO
    TITLE "0:"
    INDEX 01 01:05:24
  TRACK 70 AUDIO
    TITLE "2:cjc105_4781"
    INDEX 01 01:05:40
  TRACK 71 AUDIO
    TITLE "3:cjc105_4782"
    INDEX 01 01:06:32
  TRACK 72 AUDIO
    TITLE "0:"
    INDEX 01 01:07:47
  TRACK 73 AUDIO
    TITLE "2:cjc105_4783"
    INDEX 01 01:07:66
  TRACK 74 AUDIO
    TITLE "3:cjc105_4784"
    INDEX 01 01:09:22
  TRACK 75 AUDIO
    TITLE "0:"
    INDEX 01 01:10:61
  TRACK 76 AUDIO
    TITLE "2:cjc105_4785"
    INDEX 01 01:11:03
  TRACK 77 AUDIO
    TITLE "3:cjc105_4786"
    INDEX 01 01:12:26
  TRACK 78 AUDIO
    TITLE "0:"
    INDEX 01 01:13:61
  TRACK 79 AUDIO
    TITLE "2:cjc105_4787"
    INDEX 01 01:14:04
  TRACK 80 AUDIO
    TITLE "3:cjc105_4788"
    INDEX 01 01:15:15
  TRACK 81 AUDIO
    TITLE "0:"
    INDEX 01 01:16:46
  TRACK 82 AUDIO
    TITLE "2:cjc105_4789"
    INDEX 01 01:16:69
  TRACK 83 AUDIO
    TITLE "3:cjc105_4790"
    INDEX 01 01:18:07
  TRACK 84 AUDIO
    TITLE "0:"
    INDEX 01 01:19:36
